<svg xmlns="http://www.w3.org/2000/svg" viewBox="0 0 959 1079"><defs><style>.cls-1{fill:#fbe9ff;}.cls-2{fill:#450854;stroke:#000;stroke-miterlimit:10;}.cls-3{fill:#e6e6e6;}</style></defs><title>logAsset 2</title><g id="Layer_2" data-name="Layer 2"><g id="Layer_1-2" data-name="Layer 1"><rect class="cls-1" width="959" height="1079"/><path d="M362.1,511.12v45.1h25.11v-15a2.83,2.83,0,0,1,.54-1.94,1.82,1.82,0,0,1,1.4-.58,1.77,1.77,0,0,1,1.35.56,2.82,2.82,0,0,1,.54,2V560H349.27a2.83,2.83,0,0,1-1.94-.54,1.76,1.76,0,0,1-.58-1.35,1.73,1.73,0,0,1,.58-1.37,2.89,2.89,0,0,1,1.94-.52h9v-45.1h-9a2.89,2.89,0,0,1-1.94-.52,1.91,1.91,0,0,1,0-2.74,2.94,2.94,0,0,1,1.94-.52H371.1a2.91,2.91,0,0,1,1.93.52,1.89,1.89,0,0,1,0,2.74,2.86,2.86,0,0,1-1.93.52Z"/><path d="M445.09,540.6a20,20,0,0,1-6.19,14.77,21.3,21.3,0,0,1-29.91,0,20.76,20.76,0,0,1,0-29.52,21.28,21.28,0,0,1,29.91,0A20,20,0,0,1,445.09,540.6Zm-3.82,0a16.35,16.35,0,0,0-5.07-12.1,17.52,17.52,0,0,0-24.53,0,16.93,16.93,0,0,0,0,24.14,17.46,17.46,0,0,0,24.53,0A16.41,16.41,0,0,0,441.27,540.6Z"/><path d="M492,528V521h8.87a2.8,2.8,0,0,1,1.93.54,1.83,1.83,0,0,1,.59,1.4,1.77,1.77,0,0,1-.59,1.35,2.8,2.8,0,0,1-1.93.54h-5.09v37.76a13.87,13.87,0,0,1-1.62,6.75,15,15,0,0,1-3.6,4.1,19.5,19.5,0,0,1-4.59,3,14.14,14.14,0,0,1-5.54.9H469.71a2.9,2.9,0,0,1-1.93-.51,1.77,1.77,0,0,1-.59-1.38,1.81,1.81,0,0,1,.59-1.39,2.78,2.78,0,0,1,1.93-.54l10.85,0a11,11,0,0,0,6-1.71,13.06,13.06,0,0,0,4.43-5,10.36,10.36,0,0,0,1-4.82V550.73q-6.08,8.32-15.66,8.33a18.15,18.15,0,0,1-13.44-5.79,20,20,0,0,1,0-27.83,18.17,18.17,0,0,1,13.44-5.77Q485.92,519.67,492,528Zm0,11.38a15.32,15.32,0,0,0-4.57-11.25,15.23,15.23,0,0,0-21.81,0,16.22,16.22,0,0,0,0,22.51,15.2,15.2,0,0,0,21.81,0A15.42,15.42,0,0,0,492,539.34Z"/><path d="M536.59,521v35.2h14.86a3,3,0,0,1,2,.52,1.73,1.73,0,0,1,.58,1.37,1.76,1.76,0,0,1-.58,1.35,2.9,2.9,0,0,1-2,.54H518a2.83,2.83,0,0,1-1.94-.54,1.76,1.76,0,0,1-.58-1.35,1.73,1.73,0,0,1,.58-1.37,2.89,2.89,0,0,1,1.94-.52h14.85V524.85h-11a2.89,2.89,0,0,1-1.95-.54,1.72,1.72,0,0,1-.61-1.35,1.82,1.82,0,0,1,.58-1.4,2.9,2.9,0,0,1,2-.54Zm-.13-19.39v9.76h-5.58v-9.76Z"/><path d="M577.68,521v5.72a27.71,27.71,0,0,1,7.16-5.54,16.46,16.46,0,0,1,7.2-1.53,16.86,16.86,0,0,1,7.88,1.85,12.93,12.93,0,0,1,4.57,4.48,11.6,11.6,0,0,1,2,6.41v23.81h3.19a2.89,2.89,0,0,1,1.94.52,1.73,1.73,0,0,1,.58,1.37,1.76,1.76,0,0,1-.58,1.35,2.83,2.83,0,0,1-1.94.54H599.6a2.9,2.9,0,0,1-2-.54,1.76,1.76,0,0,1-.58-1.35,1.73,1.73,0,0,1,.58-1.37,3,3,0,0,1,2-.52h3.16V533a9,9,0,0,0-2.93-6.77A10.91,10.91,0,0,0,592,523.5a13.2,13.2,0,0,0-6.48,1.51q-2.74,1.5-7.84,7.49v23.72H582a2.89,2.89,0,0,1,1.94.52,1.73,1.73,0,0,1,.58,1.37,1.76,1.76,0,0,1-.58,1.35A2.83,2.83,0,0,1,582,560H569.63a2.83,2.83,0,0,1-1.94-.54,1.76,1.76,0,0,1-.58-1.35,1.73,1.73,0,0,1,.58-1.37,2.89,2.89,0,0,1,1.94-.52h4.27V524.85h-3.19a2.83,2.83,0,0,1-1.94-.54,1.82,1.82,0,0,1-.58-1.4,1.76,1.76,0,0,1,.58-1.35,2.83,2.83,0,0,1,1.94-.54Z"/><path class="cls-2" d="M447.67,345.32c20.26-11.73,31.49-12.49,37.59-8.15,4.77,3.39,4.05,8.22,8.87,21.63,6.92,19.25,12.47,20.6,17.38,34.75,5.82,16.81,3.84,31.75,2.83,39.37-1.29,9.79-5.83,44.06-24.11,50.72-21.73,7.91-61.32-23.76-68.8-62.42C413.59,380.74,444.11,348.92,447.67,345.32Z"/><path class="cls-3" d="M448,374c-4.69.47-7.55,6.8-9,10-.88,1.95-4.9,10.84-1,18,2.31,4.25,4.78,3,10,9,5.08,5.79,5.25,9.79,8,10,3.4.26,6.66-5.58,8-9,3.87-9.91-.51-19.67-2-23C460.68,386.06,455,373.31,448,374Z"/><path class="cls-3" d="M485,379c3.66-1.73,10.95,4.35,14,11,2.24,4.89,3.45,12.82,0,15-3.27,2.07-9.69-1.69-13-6C480.72,392.13,481.05,380.87,485,379Z"/></g></g></svg>