<svg xmlns="http://www.w3.org/2000/svg" viewBox="0 0 959 1079"><defs><style>.cls-1{fill:#fbe9ff;}.cls-2{fill:#450854;stroke:#000;stroke-miterlimit:10;}.cls-3{fill:#fff;}</style></defs><title>logAsset 3</title><g id="Layer_2" data-name="Layer 2"><g id="Layer_1-2" data-name="Layer 1"><rect class="cls-1" width="959" height="1079"/><path d="M280.79,536.6v19.08h6.75a2.93,2.93,0,0,1,1.92.5,1.81,1.81,0,0,1,0,2.64,2.81,2.81,0,0,1-1.92.52H272.21a2.7,2.7,0,0,1-1.87-.52,1.81,1.81,0,0,1,0-2.64,2.81,2.81,0,0,1,1.87-.5h4.92V512h-4.92a2.76,2.76,0,0,1-1.87-.5,1.83,1.83,0,0,1,0-2.65,2.75,2.75,0,0,1,1.87-.51h22.13a16.32,16.32,0,0,1,11.52,4.34q4.68,4.34,4.68,9.78a11.32,11.32,0,0,1-2.89,7.38q-2.89,3.46-9.69,5.78a32.49,32.49,0,0,1,6.7,6.09q2.79,3.4,8.93,13.94h2.79a2.86,2.86,0,0,1,1.88.5,1.84,1.84,0,0,1,0,2.64,2.74,2.74,0,0,1-1.88.52H311.5q-6.79-12.15-10.52-16.29a27.12,27.12,0,0,0-8.56-6.45Zm0-3.66h10a21.11,21.11,0,0,0,8.69-1.74,14.08,14.08,0,0,0,5.66-4.09,7.93,7.93,0,0,0,1.77-4.8c0-2.43-1.23-4.76-3.69-7a12.92,12.92,0,0,0-8.95-3.31H280.79Z"/><path d="M366,541.35H328.75a17.7,17.7,0,0,0,5.95,11.44,18.14,18.14,0,0,0,12.35,4.33,29.76,29.76,0,0,0,8.58-1.35A22.12,22.12,0,0,0,363,552.2a2.46,2.46,0,0,1,1.44-.66,1.67,1.67,0,0,1,1.22.55,1.77,1.77,0,0,1,.52,1.28,2,2,0,0,1-.7,1.44c-1.39,1.45-3.87,2.81-7.42,4.08a32.6,32.6,0,0,1-11,1.89,21.53,21.53,0,0,1-15.7-6.16,20.12,20.12,0,0,1-6.3-14.92A18.36,18.36,0,0,1,331,526a20.2,20.2,0,0,1,14.62-5.71,19.89,19.89,0,0,1,14.77,5.86Q366.13,532,366,541.35Zm-3.7-3.7a16,16,0,0,0-5.73-9.85,18,18,0,0,0-22.06,0,16,16,0,0,0-5.75,9.89Z"/><path d="M412.09,528.33v-6.71h8.58a2.7,2.7,0,0,1,1.87.52,1.75,1.75,0,0,1,.57,1.35,1.71,1.71,0,0,1-.57,1.31,2.7,2.7,0,0,1-1.87.52h-4.92v36.55a13.45,13.45,0,0,1-1.57,6.53,14.56,14.56,0,0,1-3.49,4,19.16,19.16,0,0,1-4.44,2.92,13.69,13.69,0,0,1-5.36.87H390.52a2.83,2.83,0,0,1-1.87-.5,1.69,1.69,0,0,1-.56-1.33,1.74,1.74,0,0,1,.56-1.35,2.71,2.71,0,0,1,1.87-.53l10.5,0a10.54,10.54,0,0,0,5.82-1.66,12.54,12.54,0,0,0,4.29-4.83,10,10,0,0,0,1-4.66v-11q-5.88,8.05-15.16,8.06a17.54,17.54,0,0,1-13-5.6,19.32,19.32,0,0,1,0-26.94,17.56,17.56,0,0,1,13-5.58Q406.2,520.31,412.09,528.33Zm0,11a14.87,14.87,0,0,0-4.42-10.89,14.72,14.72,0,0,0-21.11,0,15.68,15.68,0,0,0,0,21.78,14.7,14.7,0,0,0,21.11,0A14.94,14.94,0,0,0,412.09,539.35Z"/><path d="M455.26,521.62v34.06h14.37a2.93,2.93,0,0,1,1.92.5,1.81,1.81,0,0,1,0,2.64,2.81,2.81,0,0,1-1.92.52H437.22a2.71,2.71,0,0,1-1.87-.52,1.81,1.81,0,0,1,0-2.64,2.83,2.83,0,0,1,1.87-.5H451.6V525.32H440.93a2.8,2.8,0,0,1-1.9-.52,1.7,1.7,0,0,1-.59-1.31,1.75,1.75,0,0,1,.57-1.35,2.81,2.81,0,0,1,1.92-.52Zm-.13-18.78v9.46h-5.4v-9.46Z"/><path d="M519,524a2.65,2.65,0,0,1,.52-1.83,1.72,1.72,0,0,1,1.31-.56,1.78,1.78,0,0,1,1.35.56,2.86,2.86,0,0,1,.52,1.92v6.27a2.8,2.8,0,0,1-.52,1.88,1.78,1.78,0,0,1-1.35.56,1.74,1.74,0,0,1-1.25-.48,2.34,2.34,0,0,1-.58-1.56,5.87,5.87,0,0,0-2.71-4.32c-2.38-1.62-5.53-2.44-9.45-2.44q-6.14,0-9.54,2.49-2.56,1.88-2.57,4.18,0,2.61,3.05,4.35c1.39.82,4,1.44,7.93,1.88a53.48,53.48,0,0,1,10.58,1.87,13.44,13.44,0,0,1,6.3,4.23,9.39,9.39,0,0,1,2.07,5.83q0,4.67-4.49,8.3T507,560.78q-8.67,0-14.2-4.4a6.27,6.27,0,0,1-.18,1.92,1.7,1.7,0,0,1-.63.74,1.84,1.84,0,0,1-1,.3,1.72,1.72,0,0,1-1.31-.56,2.74,2.74,0,0,1-.52-1.88v-7.53a2.8,2.8,0,0,1,.5-1.88,1.69,1.69,0,0,1,1.33-.56,1.8,1.8,0,0,1,1.32.54,2,2,0,0,1,.55,1.46,5.47,5.47,0,0,0,1,3.36,11.12,11.12,0,0,0,4.86,3.46,21.57,21.57,0,0,0,8.17,1.37q7.14,0,10.62-2.66t3.49-5.62c0-2.26-1.18-4.08-3.53-5.44s-5.84-2.28-10.39-2.75a41.77,41.77,0,0,1-9.78-1.83,10,10,0,0,1-4.62-3.39,8.13,8.13,0,0,1-1.65-4.88q0-4.71,4.62-7.47a21,21,0,0,1,11-2.77Q514.2,520.31,519,524Z"/><path d="M552.88,521.62h19.86a2.73,2.73,0,0,1,1.88.52,1.78,1.78,0,0,1,.56,1.35,1.74,1.74,0,0,1-.56,1.31,2.73,2.73,0,0,1-1.88.52H552.88v24.35a6.68,6.68,0,0,0,2.55,5.32q2.55,2.13,7.47,2.13a32.2,32.2,0,0,0,8-1.11,26.93,26.93,0,0,0,6.71-2.5,2.84,2.84,0,0,1,1.44-.57,1.64,1.64,0,0,1,1.22.54,1.8,1.8,0,0,1,.52,1.29,1.74,1.74,0,0,1-.56,1.22c-.93,1-3.19,2-6.78,3.11a34.5,34.5,0,0,1-10.3,1.68q-6.4,0-10.19-3a9.78,9.78,0,0,1-3.79-8.1V525.32h-6.75a2.73,2.73,0,0,1-1.88-.52,1.74,1.74,0,0,1-.56-1.35,1.69,1.69,0,0,1,.56-1.31,2.73,2.73,0,0,1,1.88-.52h6.75V510.81a2.71,2.71,0,0,1,.52-1.87,1.7,1.7,0,0,1,1.31-.57,1.75,1.75,0,0,1,1.35.57,2.71,2.71,0,0,1,.52,1.87Z"/><path d="M633.73,541.35H596.44a17.7,17.7,0,0,0,5.95,11.44,18.14,18.14,0,0,0,12.35,4.33,29.76,29.76,0,0,0,8.58-1.35,22.12,22.12,0,0,0,7.32-3.57,2.46,2.46,0,0,1,1.44-.66,1.67,1.67,0,0,1,1.22.55,1.82,1.82,0,0,1,.52,1.28,2,2,0,0,1-.7,1.44q-2.08,2.18-7.43,4.08a32.5,32.5,0,0,1-11,1.89A21.57,21.57,0,0,1,599,554.62a20.14,20.14,0,0,1-6.29-14.92,18.36,18.36,0,0,1,5.9-13.68,20.2,20.2,0,0,1,14.62-5.71A19.89,19.89,0,0,1,628,526.17Q633.82,532,633.73,541.35Zm-3.7-3.7a16,16,0,0,0-5.73-9.85,18,18,0,0,0-22.06,0,16,16,0,0,0-5.75,9.89Z"/><path d="M663.09,521.62v9.23q7.14-6.44,10.7-8.3a14.35,14.35,0,0,1,6.55-1.85,9.7,9.7,0,0,1,6.08,2.2q2.8,2.21,2.81,3.33a1.86,1.86,0,0,1-1.92,1.92,1.65,1.65,0,0,1-.74-.15,6.23,6.23,0,0,1-1.13-1,11,11,0,0,0-2.66-2.09,4.88,4.88,0,0,0-2.22-.57,12.21,12.21,0,0,0-5.77,1.92q-3.37,1.92-11.7,9.37v20H679.3a2.88,2.88,0,0,1,1.91.5,1.81,1.81,0,0,1,0,2.64,2.76,2.76,0,0,1-1.91.52H650.59a2.76,2.76,0,0,1-1.87-.5,1.62,1.62,0,0,1-.57-1.28,1.64,1.64,0,0,1,.54-1.25,2.85,2.85,0,0,1,1.9-.5h8.84V525.32h-6.75a2.7,2.7,0,0,1-1.87-.52,1.75,1.75,0,0,1-.57-1.35,1.71,1.71,0,0,1,.55-1.31,2.69,2.69,0,0,1,1.89-.52Z"/><path class="cls-2" d="M294,423c-4.82-33.48,43.07-74,88-76,2.26-.1,39.2-1.2,66,23,14.43,13,13.75,22.41,30,33,21.8,14.21,46.2,12.44,51,12,31-2.82,34.09-21.6,61-23,18.91-1,48,6.7,57,30,7.37,19-.41,43.64-16,54-15.12,10.05-29.9,1.58-68-1-19.38-1.31-19.61.61-67,3-71.33,3.6-107,5.4-133-3C347.29,469.93,298.48,454.16,294,423Z"/><path class="cls-3" d="M337,409c4.86-12.23,15.3-18,19-20,12.91-7.1,33-10.05,49,1,17.46,12.09,18.62,33.09,19,40,.43,7.72,1.07,19.36-6,28-14.17,17.31-53.57,15.48-72-6C337.53,442.12,330.7,424.84,337,409Z"/><path class="cls-3" d="M525.5,433.5c.49-7.29,26.31-10.81,35-12,16.36-2.23,26.29-3.45,37,2,4.06,2.07,16.31,8.3,18,21,1.08,8.1-2.35,17.18-9,22-11.54,8.36-28.48.8-37-3-7.19-3.21-5.84-4.13-23-15C530.09,438.11,525.28,436.69,525.5,433.5Z"/></g></g></svg>