<svg xmlns="http://www.w3.org/2000/svg" viewBox="0 0 383 224.2"><defs><style>.cls-1{fill:#fff;}</style></defs><g id="Layer_2" data-name="Layer 2"><g id="Layer_1-2" data-name="Layer 1"><rect width="383" height="224.2"/><path class="cls-1" d="M99.12,63.05V58.93q19.3,0,31.54,6.57t19.71,21.14a68.85,68.85,0,0,1,7.48,31.94,61.89,61.89,0,0,1-5.82,27Q146.2,157.78,136.09,164t-19.26,6.23a26.44,26.44,0,0,1-17.14-5.72Q92.61,158.81,87,146.8q-6.29,12.12-14.23,17.77A29.91,29.91,0,0,1,55,170.23q-8.57,0-18.11-6.12T21.53,145.26a65.6,65.6,0,0,1-5.82-27.6A65.69,65.69,0,0,1,22.22,88.3a52.71,52.71,0,0,1,12.85-17A47.64,47.64,0,0,1,51.7,61.73q8.79-2.79,22.4-2.8v4.12q-15.88,1.59-26.23,15T37.53,117.55q0,25.71,7.89,37.71a15.28,15.28,0,0,0,13.48,7.2q7.2,0,13.65-6t11-21.48A184,184,0,0,1,77,115.15a53.91,53.91,0,0,1-1.54-12.45q0-11.08,5.14-19.09c1.67-2.66,3.66-4,5.94-4s4.38,1.34,6.06,4q4.9,7.55,4.91,18.4,0,13.26-7.43,33,4.45,15.66,10.46,21.09a19.68,19.68,0,0,0,13.54,5.42,17.44,17.44,0,0,0,14.4-7q7.42-9.36,7.42-35.08,0-31.18-13.82-46Q113.75,64.43,99.12,63.05Z"/><path class="cls-1" d="M231.21,142.57h4.57q-1.26,15-7.42,21.31a20.4,20.4,0,0,1-15.2,6.35A20.12,20.12,0,0,1,201.9,167a19,19,0,0,1-7.31-9.2q-2.34-5.94-2.23-20.57V89c0-4.8-.34-8-1-9.71a9,9,0,0,0-3.43-4.11c-.83-.61-2.55-.92-5.14-.92A30.7,30.7,0,0,0,176.14,76l-1.38-3.89L207.1,58.93h4.34v82.84q0,9.94,2.57,13.2a8.62,8.62,0,0,0,7.15,3.26,7.79,7.79,0,0,0,6.11-3Q229.83,152.17,231.21,142.57Z"/><path class="cls-1" d="M275.2,135V90.13q0-9.94-1.25-13.66a10.9,10.9,0,0,0-3.37-5.31,8.18,8.18,0,0,0-5.09-1.6,9.08,9.08,0,0,0-7,3.31q-3,3.31-4.57,13.71h-4.68q1.81-15.08,8.11-21.36t16.22-6.29q9.5,0,14.52,5.43t5.82,20q14.74-16.68,22.8-21.08a34.29,34.29,0,0,1,16.63-4.4q10.74,0,17.65,5.26a25.51,25.51,0,0,1,9.31,13.54q2.4,8.28,2.4,29.08v69.36q0,17.25.8,24.45A105.55,105.55,0,0,0,367,217.19H347.42q-2.52-10.86-3-14.17a143.11,143.11,0,0,1-1-16.68V102.58q0-15.64-2.86-20.68Q335.66,73,325.14,73A27.39,27.39,0,0,0,311,77.16q-7,4.17-17.09,15.59V135Z"/><rect class="cls-1" x="181" y="34" width="20" height="20" rx="8.98"/></g></g></svg>