<svg xmlns="http://www.w3.org/2000/svg" viewBox="0 0 57.54 15.16"><defs><style>.cls-1{fill:#231f20;}</style></defs><g id="Layer_2" data-name="Layer 2"><g id="Layer_1-2" data-name="Layer 1"><path class="cls-1" d="M4.68,4.93H4.21l-1-3.59c0-.09,0-.17,0-.25a1,1,0,0,1,0-.23h0a2.66,2.66,0,0,1-.1.47L1.9,4.93H1.43L0,.08H.5L1.57,3.89a2.1,2.1,0,0,1,.06.24c0,.07,0,.15,0,.22h0a2.63,2.63,0,0,1,.11-.46L2.93.08h.35L4.35,3.9a1.89,1.89,0,0,1,.05.23,1.55,1.55,0,0,1,0,.21h0l0-.15a1.8,1.8,0,0,1,0-.19L5.59.08h.49Z"/><path class="cls-1" d="M9.94,4.93V2.66H7.29V4.93H6.84V.08h.45V2.26H9.94V.08h.45V4.93Z"/><path class="cls-1" d="M14.79,4.93,14.25,3.5H12.17l-.52,1.43h-.5L13,.08h.45l1.84,4.85Zm-1.48-4a1.31,1.31,0,0,1-.05-.15.9.9,0,0,1,0-.19h0c0,.07,0,.14-.05.19a1.31,1.31,0,0,1-.05.15l-.78,2.16H14.1Z"/><path class="cls-1" d="M17,.49V4.93h-.46V.49H15.1V.08h3.25V.49Z"/><path class="cls-1" d="M21.49,4.93H21V.08h.45Z"/><path class="cls-1" d="M22.57,4.22a1.78,1.78,0,0,0,.27.17,1.34,1.34,0,0,0,.3.12,1.55,1.55,0,0,0,.31.07l.29,0a1.35,1.35,0,0,0,.83-.21.75.75,0,0,0,.27-.62.84.84,0,0,0-.06-.33.73.73,0,0,0-.2-.27,1.58,1.58,0,0,0-.34-.25l-.49-.28a5.67,5.67,0,0,1-.53-.32A1.61,1.61,0,0,1,22.86,2a.88.88,0,0,1-.21-.34,1.3,1.3,0,0,1-.07-.41,1,1,0,0,1,.13-.53,1.09,1.09,0,0,1,.34-.4,1.56,1.56,0,0,1,.5-.25A2,2,0,0,1,24.16,0a2.39,2.39,0,0,1,.95.16v.5a1.9,1.9,0,0,0-1-.25,1.77,1.77,0,0,0-.41.05,1.19,1.19,0,0,0-.34.16.67.67,0,0,0-.22.25.68.68,0,0,0-.09.35.79.79,0,0,0,.06.32.76.76,0,0,0,.18.26,1.42,1.42,0,0,0,.32.25l.5.27c.2.11.38.22.53.32A2,2,0,0,1,25,3a1.06,1.06,0,0,1,.23.35,1.16,1.16,0,0,1,.07.42,1.4,1.4,0,0,1-.11.56,1,1,0,0,1-.34.4,1.37,1.37,0,0,1-.5.24,2.27,2.27,0,0,1-.65.09l-.27,0-.33-.06-.31-.08a1,1,0,0,1-.23-.11Z"/><path class="cls-1" d="M5.36,15V11.09H.78V15H0V6.62H.78v3.77H5.36V6.62h.78V15Z"/><path class="cls-1" d="M13.76,15l-.92-2.48H9.23L8.33,15H7.46l3.2-8.4h.79L14.63,15ZM11.2,8.09c0-.08,0-.16-.08-.26A2.66,2.66,0,0,1,11,7.5h0a2.66,2.66,0,0,1-.08.33c0,.1-.06.18-.08.26L9.5,11.83h3.07Z"/><path class="cls-1" d="M16.73,11.75V15H16V6.62h2.16a3.76,3.76,0,0,1,1.17.16,2.45,2.45,0,0,1,.87.48,2,2,0,0,1,.53.76,2.74,2.74,0,0,1,.18,1,2.92,2.92,0,0,1-.2,1.08,2.59,2.59,0,0,1-.59.86,2.83,2.83,0,0,1-.94.56,3.68,3.68,0,0,1-1.25.2Zm0-4.42V11h1.12a2.35,2.35,0,0,0,1.64-.51,1.79,1.79,0,0,0,.57-1.42c0-1.19-.69-1.78-2.08-1.78Z"/><path class="cls-1" d="M23.36,11.75V15h-.78V6.62h2.16a3.83,3.83,0,0,1,1.18.16,2.4,2.4,0,0,1,.86.48,2,2,0,0,1,.53.76,2.74,2.74,0,0,1,.18,1,2.92,2.92,0,0,1-.2,1.08,2.59,2.59,0,0,1-.59.86,2.83,2.83,0,0,1-.94.56,3.66,3.66,0,0,1-1.24.2Zm0-4.42V11h1.11a2.4,2.4,0,0,0,1.65-.51,1.82,1.82,0,0,0,.56-1.42c0-1.19-.69-1.78-2.08-1.78Z"/><path class="cls-1" d="M30,15H29.2V6.62H30Z"/><path class="cls-1" d="M37.92,15,33.25,8.28,33.08,8a2.26,2.26,0,0,1-.14-.26h0a2.07,2.07,0,0,1,0,.29c0,.13,0,.28,0,.47V15h-.78V6.62H33l4.59,6.66c.07.11.14.2.19.3l.16.25h0c0-.13,0-.27,0-.43s0-.34,0-.54V6.62h.78V15Z"/><path class="cls-1" d="M40.9,15V6.62H45v.71H41.68v3.08h3.07v.71H41.68v3.19h3.51V15Z"/><path class="cls-1" d="M46.61,13.79a3.07,3.07,0,0,0,.47.28,2.57,2.57,0,0,0,.52.21,3.71,3.71,0,0,0,.53.13,3.26,3.26,0,0,0,.52.05,2.35,2.35,0,0,0,1.43-.37A1.26,1.26,0,0,0,50.55,13a1.38,1.38,0,0,0-.11-.59A1.44,1.44,0,0,0,50.1,12a3.6,3.6,0,0,0-.59-.43c-.24-.14-.52-.31-.85-.49a8.93,8.93,0,0,1-.92-.55,3.14,3.14,0,0,1-.63-.53,1.91,1.91,0,0,1-.36-.59,2.27,2.27,0,0,1-.11-.72,1.87,1.87,0,0,1,.22-.92,2.1,2.1,0,0,1,.58-.68,2.74,2.74,0,0,1,.87-.44,3.62,3.62,0,0,1,1.06-.15A4.38,4.38,0,0,1,51,6.75v.86a3.45,3.45,0,0,0-1.74-.42,2.71,2.71,0,0,0-.71.09,2,2,0,0,0-.58.26A1.36,1.36,0,0,0,47.6,8a1.2,1.2,0,0,0-.14.61,1.57,1.57,0,0,0,.09.56,1.45,1.45,0,0,0,.31.45,3,3,0,0,0,.56.42l.86.48a10.24,10.24,0,0,1,.92.54,3.7,3.7,0,0,1,.65.56,2.15,2.15,0,0,1,.39.62,1.81,1.81,0,0,1,.13.72,2.13,2.13,0,0,1-.21,1,1.74,1.74,0,0,1-.57.69,2.48,2.48,0,0,1-.88.42,4.35,4.35,0,0,1-1.12.14l-.47,0a3.66,3.66,0,0,1-.56-.1L47,14.89a2,2,0,0,1-.41-.19Z"/><path class="cls-1" d="M52.78,13.79a3.07,3.07,0,0,0,.47.28,2.57,2.57,0,0,0,.52.21,3.71,3.71,0,0,0,.53.13,3.26,3.26,0,0,0,.52.05,2.35,2.35,0,0,0,1.43-.37A1.26,1.26,0,0,0,56.72,13a1.38,1.38,0,0,0-.11-.59,1.44,1.44,0,0,0-.34-.46,3.6,3.6,0,0,0-.59-.43c-.24-.14-.52-.31-.85-.49a8.93,8.93,0,0,1-.92-.55,3.14,3.14,0,0,1-.63-.53,1.91,1.91,0,0,1-.36-.59,2.27,2.27,0,0,1-.11-.72A1.87,1.87,0,0,1,53,7.75a2.1,2.1,0,0,1,.58-.68,2.74,2.74,0,0,1,.87-.44,3.62,3.62,0,0,1,1.06-.15,4.38,4.38,0,0,1,1.65.27v.86a3.45,3.45,0,0,0-1.74-.42,2.71,2.71,0,0,0-.71.09,2,2,0,0,0-.58.26,1.36,1.36,0,0,0-.39.44,1.2,1.2,0,0,0-.14.61,1.57,1.57,0,0,0,.09.56A1.45,1.45,0,0,0,54,9.6a3,3,0,0,0,.56.42l.86.48a10.24,10.24,0,0,1,.92.54,3.7,3.7,0,0,1,.65.56,2.15,2.15,0,0,1,.39.62,1.81,1.81,0,0,1,.13.72,2.13,2.13,0,0,1-.21,1,1.74,1.74,0,0,1-.57.69,2.48,2.48,0,0,1-.88.42,4.35,4.35,0,0,1-1.12.14l-.47,0a3.66,3.66,0,0,1-.56-.1l-.54-.14a2,2,0,0,1-.41-.19Z"/></g></g></svg>