<svg id="Layer_1" data-name="Layer 1" xmlns="http://www.w3.org/2000/svg" viewBox="0 0 1280 360">
  <defs>
    <style>
      .cls-1 {
        opacity: 0.24;
      }

      .cls-2,
      .cls-3,
      .cls-4,
      .cls-5,
      .cls-6 {
        fill: none;
        stroke-miterlimit: 10;
      }

      .cls-2 {
        stroke: #3f2717;
      }

      .cls-3 {
        stroke: #aa0009;
      }

      .cls-3,
      .cls-4,
      .cls-5,
      .cls-6 {
        stroke-width: 3px;
        fill-rule: evenodd;
      }

      .cls-4 {
        stroke: #3500bf;
      }

      .cls-5 {
        stroke: #00ff56;
      }

      .cls-6 {
        stroke: #000;
      }
    </style>
  </defs>
  <g class="cls-1">
    <line class="cls-2" x1="166.5" x2="166.5" y2="360" />
  </g>
  <g class="cls-1">
    <line class="cls-2" x1="326.5" x2="326.5" y2="360" />
  </g>
  <g class="cls-1">
    <line class="cls-2" x1="486.5" x2="486.5" y2="360" />
  </g>
  <g class="cls-1">
    <line class="cls-2" x1="646.5" x2="646.5" y2="360" />
  </g>
  <g class="cls-1">
    <line class="cls-2" x1="806.5" x2="806.5" y2="360" />
  </g>
  <g class="cls-1">
    <line class="cls-2" x1="966.5" x2="966.5" y2="360" />
  </g>
  <g class="cls-1">
    <line class="cls-2" x1="1126.5" x2="1126.5" y2="360" />
  </g>
  <polyline class="cls-3"
    points="0.5 190.5 166.5 89.5 326.5 121.5 486.5 121.5 646.5 61.5 806.5 190.5 966.5 244.5 1126.5 203.5 1280.5 81.5" />
  <polyline class="cls-4"
    points="0.5 75.5 166.5 231.5 326.5 202.5 486.5 226.5 646.5 288.5 806.5 258.5 966.5 142.5 1126.5 152.5 1280.5 206.5" />
  <polyline class="cls-5"
    points="0.5 279.5 166.5 257.5 326.5 298.5 486.5 329.5 646.5 311.5 806.5 329.5 966.5 312.5 1126.5 344.5 1280.5 270.5" />
  <polyline class="cls-6"
    points="0.5 28.5 166.5 166.5 326.5 161.5 486.5 61.5 646.5 28.5 806.5 69.5 966.5 97.5 1126.5 41.5 1280.5 44.5" />
</svg>