<svg xmlns="http://www.w3.org/2000/svg" viewBox="0 0 24.88 11.69"><defs><style>.cls-1{fill:#231f20;}.cls-2{fill:#27aae1;}.cls-3{fill:#4db85d;}.cls-4{fill:#ef4136;}</style></defs><g id="Layer_2" data-name="Layer 2"><g id="Layer_1-2" data-name="Layer 1"><path class="cls-1" d="M5.48,11.63C5.4,11.1,5.3,10.54,5.19,10S5,8.82,4.82,8.23c-.08.18-.16.36-.26.56l-.32.6c-.11.21-.23.42-.35.63l-.36.61-.35.57-.34.49-.46,0c0-.27-.08-.55-.13-.85s-.1-.6-.16-.9S2,9.28,1.92,9s-.12-.57-.18-.83-.12-.51-.18-.73S1.45,7,1.4,6.86a3.69,3.69,0,0,0-.15-.44.89.89,0,0,0-.16-.26A.48.48,0,0,0,.93,6,.66.66,0,0,0,.72,6L.43,6l-.37.08L0,5.81c.38-.14.71-.24,1-.32a2.8,2.8,0,0,1,.59-.1l.21,0A.44.44,0,0,1,2,5.56a.84.84,0,0,1,.17.25,2.94,2.94,0,0,1,.16.41c0,.11.08.26.12.44s.1.38.15.6.11.46.17.72.11.52.16.8.11.55.16.84.09.57.13.85l.21-.35c.09-.14.17-.3.26-.46l.27-.51.25-.5c.07-.16.14-.32.19-.46a3.31,3.31,0,0,0,.13-.36,1.38,1.38,0,0,0,0-.2,1.34,1.34,0,0,0,0-.2c0-.08,0-.18,0-.28s0-.2,0-.3l-.06-.3a2.06,2.06,0,0,0-.07-.29.82.82,0,0,1,0-.18.26.26,0,0,1,.09-.21.44.44,0,0,1,.29-.08,1,1,0,0,1,.28,0,1.17,1.17,0,0,1,.26.1c.09.35.18.72.28,1.1s.19.77.28,1.17S6,9,6,9.37s.15.76.22,1.12c.2-.31.39-.63.58-1s.36-.65.51-1a8.23,8.23,0,0,0,.36-1,3.49,3.49,0,0,0,.13-.94c0-.13,0-.25,0-.37a2,2,0,0,0-.09-.35,1.34,1.34,0,0,0-.17-.31,1.15,1.15,0,0,0-.27-.27l0-.11h.29a1.18,1.18,0,0,1,.83.26,1,1,0,0,1,.27.74A2.94,2.94,0,0,1,8.59,7a7.83,7.83,0,0,1-.38,1c-.16.34-.33.67-.53,1s-.4.68-.61,1-.41.63-.61.91-.37.54-.53.75Z"/><path class="cls-1" d="M10.9,5.54l-.12,1c0,.32-.06.63-.08.93s0,.59,0,.86,0,.51,0,.73,0,.54,0,.75,0,.39,0,.54a1.9,1.9,0,0,0,.08.34.48.48,0,0,0,.11.2A.24.24,0,0,0,11,11l.2,0a1.71,1.71,0,0,0,.43-.06,3.06,3.06,0,0,0,.48-.17l.08.22a3.59,3.59,0,0,1-.38.25l-.49.23a3.58,3.58,0,0,1-.49.17,1.52,1.52,0,0,1-.43.07l-.21,0a.36.36,0,0,1-.18-.1.64.64,0,0,1-.14-.22,2.1,2.1,0,0,1-.1-.4,4.82,4.82,0,0,1-.06-.64c0-.25,0-.56,0-.92s0-.45,0-.72,0-.55,0-.86,0-.62,0-1,0-.69.05-1.06a.4.4,0,0,1,.07-.19A.28.28,0,0,1,10,5.48a.58.58,0,0,1,.17-.06h.17A1.07,1.07,0,0,1,10.9,5.54Zm-.36-1.91a.5.5,0,0,1-.27-.07.58.58,0,0,1-.19-.16A.59.59,0,0,1,10,3.18a.86.86,0,0,1-.05-.27A.74.74,0,0,1,10,2.57a.78.78,0,0,1,.16-.24.57.57,0,0,1,.23-.15.69.69,0,0,1,.24-.05.58.58,0,0,1,.26.06.52.52,0,0,1,.19.14.54.54,0,0,1,.13.22.71.71,0,0,1,0,.26.77.77,0,0,1-.05.29.82.82,0,0,1-.14.26.57.57,0,0,1-.22.19A.54.54,0,0,1,10.54,3.63Z"/><path class="cls-1" d="M22.57,9.21a2.6,2.6,0,0,1-1-.33.68.68,0,0,1-.32-.59A.87.87,0,0,1,21.34,8a1,1,0,0,1,.17-.33c.08-.11.19-.24.31-.38l.44-.49c.17-.18.33-.37.51-.59a6.14,6.14,0,0,0,.48-.7,4.7,4.7,0,0,0,.35-.83,3.32,3.32,0,0,0,.14-1A1.67,1.67,0,0,0,23.62,3a1.39,1.39,0,0,0-.34-.47,1.61,1.61,0,0,0-.51-.29,2.23,2.23,0,0,0-1.14,0,1.22,1.22,0,0,0-.43.2,1.07,1.07,0,0,0-.29.34,1,1,0,0,0-.1.48,1.56,1.56,0,0,0,.12.59,1.69,1.69,0,0,0,.38.52l0,.08a1.34,1.34,0,0,1-.55.13,1,1,0,0,1-.35-.06.79.79,0,0,1-.29-.18.84.84,0,0,1-.2-.29,1,1,0,0,1-.08-.4A1.43,1.43,0,0,1,20,3.05a1.93,1.93,0,0,1,.35-.51,2.45,2.45,0,0,1,.53-.42,3.73,3.73,0,0,1,.63-.32,3.93,3.93,0,0,1,.67-.19,3.09,3.09,0,0,1,.66-.07,2.64,2.64,0,0,1,.81.12,2.08,2.08,0,0,1,.66.35,1.69,1.69,0,0,1,.44.58,1.83,1.83,0,0,1,.17.79,2.94,2.94,0,0,1-.17,1,4.07,4.07,0,0,1-.43.86,5.34,5.34,0,0,1-.59.76c-.21.24-.43.46-.64.68L22.7,7a3.38,3.38,0,0,0-.31.37,2.16,2.16,0,0,0-.22.39,1.1,1.1,0,0,0-.08.4.61.61,0,0,0,0,.24.52.52,0,0,0,.11.19,1.57,1.57,0,0,0,.19.15l.26.14ZM22,11.67a.5.5,0,0,1-.27-.07.57.57,0,0,1-.21-.15.68.68,0,0,1-.14-.23.75.75,0,0,1,0-.26.74.74,0,0,1,.07-.34.78.78,0,0,1,.16-.24.86.86,0,0,1,.22-.15.69.69,0,0,1,.24-.05.6.6,0,0,1,.27.06.55.55,0,0,1,.22.14.74.74,0,0,1,.13.21.58.58,0,0,1,.05.26.71.71,0,0,1-.05.29,1.13,1.13,0,0,1-.13.27.76.76,0,0,1-.22.18A.57.57,0,0,1,22,11.67Z"/><path class="cls-2" d="M14.45,1.72c.05-.48.11-1,.18-1.58A1.27,1.27,0,0,0,14.09,0l-.22,0-.2.07a.33.33,0,0,0-.14.12.24.24,0,0,0-.06.17c0,.44-.05.9-.07,1.38s-.06,1-.08,1.48c0,.31,0,.62-.05.93l1.1-1.65C14.4,2.26,14.42,2,14.45,1.72Z"/><path class="cls-3" d="M19.27,10.74a3.06,3.06,0,0,1-.48.17,1.88,1.88,0,0,1-.46.06.62.62,0,0,1-.25,0,.35.35,0,0,1-.17-.17.72.72,0,0,1-.09-.33,3.7,3.7,0,0,1,0-.53c0-.13,0-.28,0-.45s0-.35,0-.54,0-.39.05-.59,0-.38.05-.56,0-.34,0-.49,0-.26,0-.34a2.5,2.5,0,0,0-.1-.72,1.29,1.29,0,0,0-.28-.49,1.11,1.11,0,0,0-.39-.29,1.22,1.22,0,0,0-.46-.09,1.54,1.54,0,0,0-.72.21,2.66,2.66,0,0,0-.75.67,6.72,6.72,0,0,0-.75,1.21,13,13,0,0,0-.69,1.82h0c0-.4.05-.77.08-1.11a2.46,2.46,0,0,1,0-.28L13,9.52c0,.33,0,.67-.05,1s0,.76-.06,1.1h.07l.9-.11A7.66,7.66,0,0,1,14,10.24,7.55,7.55,0,0,1,14.34,9,9.55,9.55,0,0,1,14.78,8a6.58,6.58,0,0,1,.52-.85,3,3,0,0,1,.54-.57.9.9,0,0,1,.52-.21.59.59,0,0,1,.49.24,1.13,1.13,0,0,1,.18.7c0,.13,0,.3,0,.52s0,.44-.06.7,0,.53-.05.8,0,.55,0,.82a6,6,0,0,0,0,.61,2.18,2.18,0,0,0,.08.49.88.88,0,0,0,.2.34.52.52,0,0,0,.36.12,1.6,1.6,0,0,0,.45-.07,3.39,3.39,0,0,0,.51-.17c.17-.07.33-.15.48-.23a3,3,0,0,0,.39-.25Z"/><path class="cls-4" d="M14,7.13l.06-1c0-.31.05-.63.08-.95s.05-.67.09-1,.07-.74.11-1.15c0-.17,0-.36,0-.54l-1.1,1.65,0,.6-.09,1.54c0,.51-.05,1-.08,1.49S13,8.76,13,9.22l0,.3.95-1.67C13.94,7.6,14,7.36,14,7.13Z"/></g></g></svg>