<svg id="Layer_1" data-name="Layer 1" xmlns="http://www.w3.org/2000/svg" viewBox="0 0 1920 540"><defs><style>.cls-1{fill:#fff;}</style></defs><rect class="cls-1" x="0.5" y="0.5" width="1920" height="540"/><rect class="cls-1" x="121.5" y="276.5" width="32" height="263"/><path d="M153,277V539H122V277h31m1-1H121V540h33V276Z"/><rect class="cls-1" x="168.5" y="239.5" width="32" height="300"/><path d="M200,240V539H169V240h31m1-1H168V540h33V239Z"/><rect class="cls-1" x="215.5" y="251.5" width="32" height="288"/><path d="M247,252V539H216V252h31m1-1H215V540h33V251Z"/><rect class="cls-1" x="262.5" y="203.5" width="32" height="336"/><path d="M294,204V539H263V204h31m1-1H262V540h33V203Z"/><rect class="cls-1" x="309.5" y="224.5" width="32" height="315"/><path d="M341,225V539H310V225h31m1-1H309V540h33V224Z"/><rect class="cls-1" x="356.5" y="209.5" width="32" height="330"/><path d="M388,210V539H357V210h31m1-1H356V540h33V209Z"/><rect class="cls-1" x="403.5" y="221.5" width="32" height="318"/><path d="M435,222V539H404V222h31m1-1H403V540h33V221Z"/><rect class="cls-1" x="450.5" y="236.5" width="32" height="303"/><path d="M482,237V539H451V237h31m1-1H450V540h33V236Z"/><rect class="cls-1" x="497.5" y="251.5" width="32" height="288"/><path d="M529,252V539H498V252h31m1-1H497V540h33V251Z"/><rect class="cls-1" x="544.5" y="224.5" width="32" height="315"/><path d="M576,225V539H545V225h31m1-1H544V540h33V224Z"/><rect class="cls-1" x="591.5" y="165.5" width="32" height="374"/><path d="M623,166V539H592V166h31m1-1H591V540h33V165Z"/><rect class="cls-1" x="638.5" y="115.5" width="32" height="424"/><path d="M670,116V539H639V116h31m1-1H638V540h33V115Z"/><rect class="cls-1" x="685.5" y="137.5" width="32" height="402"/><path d="M717,138V539H686V138h31m1-1H685V540h33V137Z"/><rect class="cls-1" x="732.5" y="183.5" width="32" height="356"/><path d="M764,184V539H733V184h31m1-1H732V540h33V183Z"/><rect class="cls-1" x="779.5" y="203.5" width="32" height="336"/><path d="M811,204V539H780V204h31m1-1H779V540h33V203Z"/><rect class="cls-1" x="826.5" y="183.5" width="32" height="356"/><path d="M858,184V539H827V184h31m1-1H826V540h33V183Z"/><rect class="cls-1" x="873.5" y="203.5" width="32" height="336"/><path d="M905,204V539H874V204h31m1-1H873V540h33V203Z"/><rect class="cls-1" x="920.5" y="171.5" width="32" height="368"/><path d="M952,172V539H921V172h31m1-1H920V540h33V171Z"/><rect class="cls-1" x="967.5" y="146.5" width="32" height="393"/><path d="M999,147V539H968V147h31m1-1H967V540h33V146Z"/><rect class="cls-1" x="1014.5" y="171.5" width="32" height="368"/><path d="M1046,172V539h-31V172h31m1-1h-33V540h33V171Z"/><rect class="cls-1" x="1061.5" y="127.5" width="32" height="412"/><path d="M1093,128V539h-31V128h31m1-1h-33V540h33V127Z"/><rect class="cls-1" x="1108.5" y="81.5" width="32" height="458"/><path d="M1140,82V539h-31V82h31m1-1h-33V540h33V81Z"/><rect class="cls-1" x="1155.5" y="118.5" width="32" height="421"/><path d="M1187,119V539h-31V119h31m1-1h-33V540h33V118Z"/><rect class="cls-1" x="1202.5" y="146.5" width="32" height="393"/><path d="M1234,147V539h-31V147h31m1-1h-33V540h33V146Z"/><rect class="cls-1" x="1249.5" y="203.5" width="32" height="336"/><path d="M1281,204V539h-31V204h31m1-1h-33V540h33V203Z"/><rect class="cls-1" x="1296.5" y="232.5" width="32" height="307"/><path d="M1328,233V539h-31V233h31m1-1h-33V540h33V232Z"/><rect class="cls-1" x="1343.5" y="203.5" width="32" height="336"/><path d="M1375,204V539h-31V204h31m1-1h-33V540h33V203Z"/><rect class="cls-1" x="1390.5" y="178.5" width="32" height="361"/><path d="M1422,179V539h-31V179h31m1-1h-33V540h33V178Z"/><rect class="cls-1" x="1437.5" y="210.5" width="32" height="329"/><path d="M1469,211V539h-31V211h31m1-1h-33V540h33V210Z"/><rect class="cls-1" x="1484.5" y="259.5" width="32" height="280"/><path d="M1516,260V539h-31V260h31m1-1h-33V540h33V259Z"/><rect class="cls-1" x="1531.5" y="295.5" width="32" height="244"/><path d="M1563,296V539h-31V296h31m1-1h-33V540h33V295Z"/><rect class="cls-1" x="1578.5" y="337.5" width="32" height="202"/><path d="M1610,338V539h-31V338h31m1-1h-33V540h33V337Z"/><rect class="cls-1" x="1625.5" y="310.5" width="32" height="229"/><path d="M1657,311V539h-31V311h31m1-1h-33V540h33V310Z"/><rect class="cls-1" x="1672.5" y="276.5" width="32" height="263"/><path d="M1704,277V539h-31V277h31m1-1h-33V540h33V276Z"/><rect class="cls-1" x="1719.5" y="236.5" width="32" height="303"/><path d="M1751,237V539h-31V237h31m1-1h-33V540h33V236Z"/><rect class="cls-1" x="1766.5" y="213.5" width="32" height="326"/><path d="M1798,214V539h-31V214h31m1-1h-33V540h33V213Z"/></svg>